<svg width="745" height="400" viewBox="0 0 745 400" fill="none" xmlns="http://www.w3.org/2000/svg">
<g clip-path="url(#clip0_130_1433)">
<rect width="745" height="400" rx="16" fill="#052E16"/>
<mask id="mask0_130_1433" style="mask-type:alpha" maskUnits="userSpaceOnUse" x="322" y="94" width="500" height="500">
<rect x="322" y="94" width="500" height="500" fill="#D9D9D9"/>
</mask>
<g mask="url(#mask0_130_1433)">
<path d="M750.646 162.23V295.042H701.687V246.605L620.437 327.334C627.034 337.751 631.982 348.775 635.281 360.407C638.58 372.039 640.229 383.931 640.229 396.084C640.229 430.459 628.25 459.626 604.291 483.584C580.333 507.542 551.166 519.521 516.791 519.521C482.416 519.521 453.25 507.542 429.291 483.584C405.333 459.626 393.354 430.459 393.354 396.084C393.354 361.709 405.333 332.542 429.291 308.584C453.25 284.626 482.416 272.646 516.791 272.646C529.291 272.646 541.184 274.383 552.468 277.855C563.753 281.327 574.604 286.362 585.021 292.959L666.271 211.709H618.354V162.23H750.646ZM516.896 321.605C495.993 321.605 478.337 328.775 463.927 343.115C449.517 357.455 442.312 375.077 442.312 395.98C442.312 416.883 449.482 434.539 463.823 448.948C478.163 463.358 495.784 470.563 516.687 470.563C537.59 470.563 555.246 463.393 569.656 449.053C584.066 434.712 591.271 417.091 591.271 396.188C591.271 375.285 584.1 357.629 569.76 343.219C555.42 328.81 537.798 321.605 516.896 321.605Z" fill="#FDE047"/>
</g>
</g>
<defs>
<clipPath id="clip0_130_1433">
<rect width="745" height="400" rx="16" fill="white"/>
</clipPath>
</defs>
</svg>
