<svg width="765" height="400" viewBox="0 0 765 400" fill="none" xmlns="http://www.w3.org/2000/svg">
<g clip-path="url(#clip0_131_803)">
<rect width="765" height="400" rx="16" fill="#052E16"/>
<mask id="mask0_131_803" style="mask-type:alpha" maskUnits="userSpaceOnUse" x="412" y="-47" width="500" height="500">
<rect x="412" y="-47" width="500" height="500" fill="#D9D9D9"/>
</mask>
<g mask="url(#mask0_131_803)">
<path d="M637.52 405.082V363.416H595.853V317.582H637.52V271.228C608.7 265.672 585.002 251.574 566.426 228.931C547.85 206.292 538.562 180.287 538.562 150.916C538.562 116.565 550.624 87.4034 574.749 63.4312C598.878 39.4624 627.961 27.478 661.999 27.478C696.037 27.478 725.121 39.4624 749.249 63.4312C773.374 87.4034 785.437 116.565 785.437 150.916C785.437 180.287 776.148 206.292 757.572 228.931C738.996 251.574 715.298 265.672 686.478 271.228V317.582H728.145V363.416H686.478V405.082H637.52ZM661.895 225.395C682.798 225.395 700.454 218.225 714.864 203.884C729.273 189.544 736.478 171.922 736.478 151.02C736.478 130.117 729.308 112.461 714.968 98.0509C700.628 83.6412 683.006 76.4364 662.103 76.4364C641.2 76.4364 623.544 83.6065 609.134 97.9468C594.725 112.287 587.52 129.909 587.52 150.811C587.52 171.714 594.69 189.37 609.03 203.78C623.371 218.19 640.992 225.395 661.895 225.395Z" fill="#FDE047"/>
</g>
</g>
<defs>
<clipPath id="clip0_131_803">
<rect width="765" height="400" rx="16" fill="white"/>
</clipPath>
</defs>
</svg>
