<svg width="765" height="400" viewBox="0 0 765 400" fill="none" xmlns="http://www.w3.org/2000/svg">
<g clip-path="url(#clip0_130_1404)">
<rect width="765" height="400" rx="16" fill="#052E16"/>
<mask id="mask0_130_1404" style="mask-type:alpha" maskUnits="userSpaceOnUse" x="383" y="-30" width="500" height="500">
<rect x="383" y="-30" width="500" height="500" fill="#D9D9D9"/>
</mask>
<g mask="url(#mask0_130_1404)">
<path d="M390.812 406.459V343.438C390.812 328.751 394.58 315.539 402.115 303.803C409.646 292.066 420.115 283.056 433.521 276.771C459.563 265.66 483.255 257.5 504.599 252.292C525.946 247.084 547.917 244.48 570.51 244.48C593.767 244.48 615.899 246.997 636.906 252.032C657.913 257.066 681.438 265.313 707.479 276.771C720.792 282.615 731.325 291.417 739.078 303.178C746.832 314.938 750.708 328.349 750.708 343.412V406.459H390.812ZM787.688 406.459V344.48C787.688 321.91 782.219 302.9 771.281 287.448C760.344 271.997 745.5 258.021 726.75 245.521C747.931 248.646 767.983 252.726 786.906 257.761C805.83 262.796 821.542 268.438 834.042 274.688C846.542 281.285 856.524 290.801 863.99 303.235C871.455 315.669 875.188 329.947 875.188 346.068V406.459H787.688ZM570.63 212.709C545.543 212.709 525.188 204.896 509.563 189.271C493.938 173.646 486.125 153.247 486.125 128.073C486.125 102.9 493.944 82.5005 509.583 66.8755C525.226 51.2505 545.538 43.438 570.521 43.438C595.507 43.438 615.899 51.2557 631.698 66.8911C647.497 82.5265 655.396 102.834 655.396 127.813C655.396 153.16 647.54 173.646 631.828 189.271C616.116 204.896 595.717 212.709 570.63 212.709ZM777.271 127.808C777.271 152.811 769.38 173.212 753.599 189.011C737.821 204.81 717.37 212.709 692.245 212.709C688.057 212.709 683.821 212.362 679.536 211.667C675.248 210.973 670.674 209.757 665.813 208.021C674.84 198.646 681.524 187.214 685.865 173.724C690.205 160.235 692.375 145.044 692.375 128.152C692.375 111.259 690.179 96.3061 685.786 83.2922C681.391 70.2748 674.733 58.53 665.813 48.0578C669.979 46.714 674.361 45.6081 678.958 44.7401C683.556 43.872 687.984 43.438 692.245 43.438C717.241 43.438 737.661 51.3408 753.505 67.1463C769.349 82.9519 777.271 103.172 777.271 127.808ZM439.771 357.501H701.229V345.521C701.229 340.191 699.58 335.014 696.281 329.99C692.983 324.966 688.903 321.462 684.042 319.48C660.431 309.41 640.639 302.639 624.667 299.167C608.694 295.695 590.639 293.959 570.5 293.959C551.056 293.959 533 295.695 516.333 299.167C499.667 302.639 479.701 309.41 456.438 319.48C451.924 321.41 448.017 324.896 444.719 329.938C441.42 334.976 439.771 340.171 439.771 345.521V357.501ZM570.417 169.48C582.503 169.48 592.484 165.594 600.359 157.823C608.231 150.053 612.167 140.157 612.167 128.136C612.167 116.115 608.281 106.198 600.51 98.3859C592.74 90.5734 582.844 86.6672 570.823 86.6672C558.802 86.6672 548.885 90.5248 541.073 98.2401C533.26 105.955 529.354 115.785 529.354 127.73C529.354 139.816 533.212 149.797 540.927 157.672C548.642 165.544 558.472 169.48 570.417 169.48Z" fill="#FDE047"/>
</g>
</g>
<defs>
<clipPath id="clip0_130_1404">
<rect width="765" height="400" rx="16" fill="white"/>
</clipPath>
</defs>
</svg>
