<svg width="300" height="300" viewBox="0 0 300 300" fill="none" xmlns="http://www.w3.org/2000/svg">
<path d="M300 229.44H0V229.59H300V229.44Z" fill="#E0E0E0"/>
<path d="M244.02 234H224.844V234.15H244.02V234Z" fill="#E0E0E0"/>
<path d="M268.188 233.928H246.702V234.078H268.188V233.928Z" fill="#E0E0E0"/>
<path d="M168.126 236.556H128.802V236.706H168.126V236.556Z" fill="#E0E0E0"/>
<path d="M125.346 236.556H118.962V236.706H125.346V236.556Z" fill="#E0E0E0"/>
<path d="M88.9799 233.778H69.8999V233.928H88.9799V233.778Z" fill="#E0E0E0"/>
<path d="M203.7 233.778H186.39V233.928H203.7V233.778Z" fill="#E0E0E0"/>
<path d="M56.598 235.536H38.958V235.686H56.598V235.536Z" fill="#E0E0E0"/>
<path d="M142.2 202.68H26.346C25.4384 202.678 24.5686 202.317 23.9274 201.674C23.2862 201.032 22.926 200.162 22.926 199.254V36.396C22.9339 35.4936 23.2975 34.6308 23.9379 33.9949C24.5782 33.3591 25.4436 33.0015 26.346 33H142.2C143.109 33 143.98 33.361 144.623 34.0035C145.265 34.646 145.626 35.5174 145.626 36.426V199.254C145.626 200.163 145.265 201.034 144.623 201.677C143.98 202.319 143.109 202.68 142.2 202.68ZM26.346 33.12C25.4782 33.1216 24.6465 33.4674 24.0334 34.0816C23.4204 34.6958 23.076 35.5282 23.076 36.396V199.254C23.076 200.122 23.4204 200.954 24.0334 201.568C24.6465 202.183 25.4782 202.528 26.346 202.53H142.2C143.068 202.528 143.901 202.183 144.515 201.569C145.129 200.955 145.474 200.122 145.476 199.254V36.396C145.474 35.5276 145.129 34.6953 144.515 34.0813C143.901 33.4672 143.068 33.1216 142.2 33.12H26.346Z" fill="#E0E0E0"/>
<path d="M271.986 202.68H156.126C155.218 202.678 154.347 202.317 153.705 201.675C153.063 201.033 152.702 200.162 152.7 199.254V36.396C152.709 35.4931 153.074 34.6302 153.716 33.9946C154.357 33.3589 155.223 33.0015 156.126 33H271.986C272.887 33.0031 273.751 33.3613 274.39 33.997C275.029 34.6327 275.392 35.4947 275.4 36.396V199.254C275.4 200.161 275.041 201.03 274.401 201.672C273.761 202.314 272.892 202.677 271.986 202.68ZM156.126 33.12C155.258 33.1216 154.425 33.4672 153.811 34.0813C153.197 34.6953 152.852 35.5276 152.85 36.396V199.254C152.852 200.122 153.197 200.955 153.811 201.569C154.425 202.183 155.258 202.528 156.126 202.53H271.986C272.854 202.528 273.687 202.183 274.301 201.569C274.915 200.955 275.26 200.122 275.262 199.254V36.396C275.26 35.5276 274.915 34.6953 274.301 34.0813C273.687 33.4672 272.854 33.1216 271.986 33.12H156.126Z" fill="#E0E0E0"/>
<path d="M91.3201 189.45C78.3811 189.454 65.7317 185.619 54.9726 178.432C44.2135 171.244 35.8282 161.027 30.8777 149.072C25.9272 137.118 24.634 123.963 27.1618 111.273C29.6895 98.5838 35.9246 86.929 45.0781 77.7839C45.0921 77.7694 45.1089 77.7579 45.1274 77.75C45.146 77.7421 45.1659 77.738 45.1861 77.738C45.2062 77.738 45.2262 77.7421 45.2448 77.75C45.2633 77.7579 45.2801 77.7694 45.2941 77.7839L57.3301 89.8199C57.3446 89.8339 57.3561 89.8507 57.364 89.8693C57.3719 89.8878 57.376 89.9078 57.376 89.9279C57.376 89.9481 57.3719 89.9681 57.364 89.9866C57.3561 90.0052 57.3446 90.0219 57.3301 90.0359C49.8396 97.5213 45.0297 107.27 43.6468 117.769C42.2639 128.268 44.3856 138.929 49.6823 148.099C54.9791 157.269 63.1547 164.433 72.9401 168.481C82.7256 172.529 93.5735 173.233 103.8 170.484C103.818 170.476 103.837 170.472 103.857 170.472C103.877 170.472 103.896 170.476 103.914 170.484C103.949 170.504 103.974 170.536 103.986 170.574L108.396 187.026C108.411 187.062 108.411 187.103 108.396 187.14C108.374 187.175 108.34 187.201 108.3 187.212C102.762 188.697 97.0536 189.449 91.3201 189.45ZM45.1861 78.1019C35.0934 88.2442 28.6221 101.428 26.7725 115.617C24.9228 129.805 27.7977 144.207 34.9529 156.598C42.1081 168.989 53.1451 178.678 66.3582 184.168C79.5714 189.658 94.2249 190.644 108.054 186.972L103.722 170.808C93.4495 173.529 82.5668 172.794 72.7541 168.714C62.9413 164.635 54.7443 157.439 49.4287 148.237C44.113 139.035 41.9743 128.339 43.3427 117.8C44.7111 107.262 49.5106 97.4671 57.0001 89.9279L45.1861 78.1019Z" fill="#E0E0E0"/>
<path d="M125.448 90.078C125.408 90.0784 125.369 90.0634 125.34 90.036C116.314 81.0304 104.085 75.9729 91.3349 75.9729C78.5849 75.9729 66.3556 81.0304 57.3299 90.036C57.3165 90.0504 57.3002 90.0618 57.2821 90.0696C57.2641 90.0774 57.2446 90.0815 57.2249 90.0815C57.2052 90.0815 57.1858 90.0774 57.1677 90.0696C57.1497 90.0618 57.1334 90.0504 57.1199 90.036L45.0779 78C45.0636 77.9865 45.0521 77.9703 45.0443 77.9522C45.0365 77.9342 45.0325 77.9147 45.0325 77.895C45.0325 77.8753 45.0365 77.8559 45.0443 77.8378C45.0521 77.8197 45.0636 77.8035 45.0779 77.79C57.3495 65.5261 73.9887 58.637 91.3379 58.637C108.687 58.637 125.326 65.5261 137.598 77.79C137.624 77.8187 137.639 77.8562 137.639 77.895C137.639 77.9338 137.624 77.9713 137.598 78L125.556 90.042C125.526 90.0672 125.487 90.08 125.448 90.078ZM91.3379 75.678C104.12 75.6555 116.388 80.7074 125.448 89.724L137.274 77.892C125.067 65.7523 108.551 58.9378 91.3349 58.9378C74.119 58.9378 57.603 65.7523 45.3959 77.892L57.2279 89.724C66.286 80.7041 78.5548 75.6498 91.3379 75.672V75.678Z" fill="#E0E0E0"/>
<path d="M108.24 187.23C108.214 187.235 108.188 187.235 108.162 187.23C108.146 187.22 108.131 187.207 108.12 187.192C108.109 187.176 108.101 187.159 108.096 187.14L103.686 170.688C103.671 170.651 103.671 170.61 103.686 170.574C103.696 170.557 103.709 170.543 103.724 170.531C103.74 170.52 103.757 170.512 103.776 170.508C111.936 168.329 119.378 164.038 125.352 158.068C131.327 152.099 135.623 144.661 137.809 136.503C139.995 128.345 139.994 119.755 137.805 111.597C135.616 103.44 131.317 96.0035 125.34 90.0359C125.313 90.0062 125.299 89.9678 125.299 89.9279C125.299 89.8881 125.313 89.8496 125.34 89.8199L137.4 77.7839C137.414 77.7694 137.431 77.7579 137.449 77.75C137.468 77.7421 137.488 77.738 137.508 77.738C137.528 77.738 137.548 77.7421 137.567 77.75C137.585 77.7579 137.602 77.7694 137.616 77.7839C145.685 85.9242 151.48 96.0377 154.421 107.116C157.362 118.194 157.348 129.85 154.379 140.921C151.411 151.992 145.591 162.091 137.502 170.211C129.413 178.332 119.336 184.189 108.276 187.2L108.24 187.23ZM104.01 170.73L108.348 186.894C119.354 183.913 129.385 178.095 137.437 170.02C145.489 161.946 151.279 151.9 154.23 140.885C157.18 129.871 157.187 118.275 154.249 107.257C151.312 96.2388 145.533 86.1854 137.49 78.1019L125.658 89.9279C131.63 95.9323 135.922 103.399 138.103 111.583C140.284 119.766 140.278 128.378 138.087 136.559C135.895 144.739 131.594 152.201 125.614 158.197C119.634 164.194 112.184 168.516 104.01 170.73Z" fill="#E0E0E0"/>
<path d="M58.8721 218.754V229.44C67.8897 229.439 76.6551 226.463 83.8088 220.973C90.9624 215.483 96.1045 207.786 98.4373 199.075C100.77 190.364 100.163 181.127 96.7113 172.797C93.2591 164.466 87.1544 157.507 79.3441 153L74.0041 162.258C79.7756 165.59 84.2865 170.733 86.8372 176.89C89.3878 183.047 89.8358 189.874 88.1116 196.311C86.3874 202.748 82.5873 208.437 77.3007 212.495C72.0141 216.553 65.5364 218.753 58.8721 218.754Z" fill="#E0E0E0"/>
<path d="M17.9099 188.478C17.9115 199.341 22.2276 209.759 29.9092 217.441C37.5907 225.122 48.0086 229.438 58.8719 229.44V218.754C50.8427 218.752 43.1428 215.562 37.4653 209.885C31.7878 204.207 28.5975 196.507 28.5959 188.478H17.9099Z" fill="#F0F0F0"/>
<path d="M17.9099 188.478H28.5959C28.5947 183.164 29.9926 177.943 32.6491 173.34C35.3056 168.737 39.1271 164.915 43.7293 162.257C48.3316 159.6 53.5523 158.201 58.8667 158.201C64.1811 158.201 69.4018 159.6 74.0039 162.258L79.3439 153C59.8859 141.768 34.6379 148.542 23.3999 168C19.8061 174.227 17.9128 181.289 17.9099 188.478Z" fill="#EBEBEB"/>
<path d="M190.446 213.96H177.252V229.44H190.446V213.96Z" fill="#F5F5F5"/>
<path d="M206.334 218.628H193.14V229.44H206.334V218.628Z" fill="#E0E0E0"/>
<path d="M222.228 222.606H209.034V229.434H222.228V222.606Z" fill="#F0F0F0"/>
<path d="M140.934 218.628H127.74V229.44H140.934V218.628Z" fill="#F5F5F5"/>
<path d="M156.822 221.022H143.628V229.44H156.822V221.022Z" fill="#E0E0E0"/>
<path d="M172.716 211.302H159.522V229.44H172.716V211.302Z" fill="#F0F0F0"/>
<path d="M239.958 212.52H226.764V229.44H239.958V212.52Z" fill="#F5F5F5"/>
<path d="M255.846 218.628H242.652V229.44H255.846V218.628Z" fill="#E0E0E0"/>
<path d="M271.74 215.214H258.546V229.44H271.74V215.214Z" fill="#F0F0F0"/>
<path d="M117.534 43.4161C117.537 42.1885 118.026 41.0122 118.894 40.1442C119.762 39.2763 120.938 38.7872 122.166 38.7841H266.448C267.675 38.7872 268.852 39.2763 269.72 40.1442C270.588 41.0122 271.077 42.1885 271.08 43.4161V58.3261H117.534V43.4161Z" fill="#E0E0E0"/>
<path d="M151.482 48.558C151.482 49.2512 151.688 49.9289 152.073 50.5053C152.458 51.0817 153.006 51.5308 153.646 51.7958C154.287 52.0608 154.992 52.1299 155.672 51.9942C156.352 51.8585 156.976 51.5242 157.466 51.0335C157.956 50.5429 158.289 49.918 158.423 49.2379C158.558 48.5578 158.488 47.853 158.221 47.2129C157.955 46.5727 157.505 46.0259 156.928 45.6416C156.351 45.2573 155.673 45.0528 154.98 45.054C154.052 45.0555 153.162 45.4254 152.506 46.0824C151.85 46.7393 151.482 47.6297 151.482 48.558Z" fill="#F5F5F5"/>
<path d="M142.572 52.062C144.507 52.062 146.076 50.4932 146.076 48.558C146.076 46.6228 144.507 45.054 142.572 45.054C140.637 45.054 139.068 46.6228 139.068 48.558C139.068 50.4932 140.637 52.062 142.572 52.062Z" fill="#F5F5F5"/>
<path d="M130.164 52.062C132.099 52.062 133.668 50.4932 133.668 48.558C133.668 46.6228 132.099 45.054 130.164 45.054C128.229 45.054 126.66 46.6228 126.66 48.558C126.66 50.4932 128.229 52.062 130.164 52.062Z" fill="#F5F5F5"/>
<path d="M266.448 158.742H122.166C120.938 158.739 119.762 158.25 118.894 157.382C118.026 156.514 117.537 155.338 117.534 154.11V58.326H271.08V154.11C271.077 155.338 270.588 156.514 269.72 157.382C268.852 158.25 267.675 158.739 266.448 158.742Z" fill="#F5F5F5"/>
<path d="M107.196 58.92C107.201 57.6929 107.69 56.5175 108.558 55.6499C109.426 54.7822 110.601 54.2927 111.828 54.288H256.11C257.338 54.2911 258.514 54.7802 259.382 55.6481C260.25 56.5161 260.739 57.6925 260.742 58.92V73.83H107.196V58.92Z" fill="#FAFAFA"/>
<path d="M141.144 64.062C141.144 64.755 141.35 65.4325 141.735 66.0087C142.12 66.5849 142.667 67.034 143.307 67.2993C143.947 67.5645 144.652 67.6339 145.332 67.4987C146.011 67.3635 146.636 67.0297 147.126 66.5397C147.616 66.0496 147.95 65.4253 148.085 64.7456C148.22 64.0659 148.151 63.3613 147.885 62.7211C147.62 62.0808 147.171 61.5335 146.595 61.1485C146.019 60.7635 145.341 60.558 144.648 60.558C143.719 60.558 142.827 60.9272 142.17 61.5843C141.513 62.2414 141.144 63.1327 141.144 64.062Z" fill="#E0E0E0"/>
<path d="M128.736 64.062C128.736 64.755 128.942 65.4325 129.327 66.0087C129.712 66.5849 130.259 67.034 130.899 67.2993C131.539 67.5645 132.244 67.6339 132.924 67.4987C133.603 67.3635 134.228 67.0297 134.718 66.5397C135.208 66.0496 135.542 65.4253 135.677 64.7456C135.812 64.0659 135.743 63.3613 135.477 62.7211C135.212 62.0808 134.763 61.5335 134.187 61.1485C133.611 60.7635 132.933 60.558 132.24 60.558C131.311 60.558 130.42 60.9272 129.762 61.5843C129.105 62.2414 128.736 63.1327 128.736 64.062Z" fill="#E0E0E0"/>
<path d="M116.328 64.062C116.328 64.7553 116.534 65.433 116.919 66.0093C117.304 66.5857 117.852 67.0348 118.493 67.2998C119.133 67.5649 119.838 67.6339 120.518 67.4982C121.198 67.3625 121.822 67.0282 122.312 66.5376C122.802 66.0469 123.135 65.422 123.27 64.7419C123.404 64.0618 123.334 63.3571 123.068 62.7169C122.802 62.0767 122.351 61.5299 121.774 61.1456C121.197 60.7613 120.519 60.5568 119.826 60.558C118.898 60.5596 118.008 60.9294 117.352 61.5864C116.696 62.2434 116.328 63.1337 116.328 64.062Z" fill="#E0E0E0"/>
<path d="M256.11 174.246H111.828C110.601 174.243 109.424 173.754 108.556 172.886C107.688 172.018 107.199 170.841 107.196 169.614V73.83H260.742V169.614C260.739 170.841 260.25 172.018 259.382 172.886C258.514 173.754 257.338 174.243 256.11 174.246Z" fill="#E0E0E0"/>
<path d="M150 256.536C214.249 256.536 266.334 253.495 266.334 249.744C266.334 245.993 214.249 242.952 150 242.952C85.7505 242.952 33.666 245.993 33.666 249.744C33.666 253.495 85.7505 256.536 150 256.536Z" fill="#F5F5F5"/>
<path d="M257.634 48H42.3719C40.8446 48.0047 39.381 48.6127 38.2999 49.6916C37.2188 50.7704 36.6078 52.2327 36.5999 53.76V197.436C36.6046 198.965 37.2144 200.43 38.296 201.51C39.3776 202.591 40.843 203.199 42.3719 203.202H257.634C259.162 203.197 260.625 202.588 261.706 201.508C262.786 200.428 263.395 198.964 263.4 197.436V53.76C263.392 52.2337 262.782 50.7723 261.702 49.6937C260.622 48.615 259.16 48.0063 257.634 48Z" fill="#D1D5DB"/>
<path opacity="0.3" d="M257.634 48H42.3719C40.8446 48.0047 39.381 48.6127 38.2999 49.6916C37.2188 50.7704 36.6078 52.2327 36.5999 53.76V197.436C36.6046 198.965 37.2144 200.43 38.296 201.51C39.3776 202.591 40.843 203.199 42.3719 203.202H257.634C259.162 203.197 260.625 202.588 261.706 201.508C262.786 200.428 263.395 198.964 263.4 197.436V53.76C263.392 52.2337 262.782 50.7723 261.702 49.6937C260.622 48.615 259.16 48.0063 257.634 48Z" fill="#F5F5F5"/>
<path d="M80.49 59.274H47.88C47.3745 59.2942 46.8701 59.2121 46.3972 59.0326C45.9242 58.8531 45.4924 58.5799 45.1276 58.2295C44.7628 57.879 44.4726 57.4584 44.2743 56.993C44.0761 56.5276 43.9739 56.0269 43.9739 55.521C43.9739 55.0151 44.0761 54.5145 44.2743 54.0491C44.4726 53.5836 44.7628 53.1631 45.1276 52.8126C45.4924 52.4621 45.9242 52.1889 46.3972 52.0094C46.8701 51.8299 47.3745 51.7478 47.88 51.768H80.49C80.9954 51.7478 81.4998 51.8299 81.9728 52.0094C82.4457 52.1889 82.8776 52.4621 83.2423 52.8126C83.6071 53.1631 83.8974 53.5836 84.0956 54.0491C84.2939 54.5145 84.3961 55.0151 84.3961 55.521C84.3961 56.0269 84.2939 56.5276 84.0956 56.993C83.8974 57.4584 83.6071 57.879 83.2423 58.2295C82.8776 58.5799 82.4457 58.8531 81.9728 59.0326C81.4998 59.2121 80.9954 59.2942 80.49 59.274ZM47.88 52.368C47.4543 52.3494 47.0294 52.4172 46.6306 52.5673C46.2319 52.7174 45.8677 52.9467 45.5599 53.2413C45.2522 53.5359 45.0073 53.8898 44.84 54.2816C44.6726 54.6734 44.5864 55.095 44.5864 55.521C44.5864 55.9471 44.6726 56.3687 44.84 56.7605C45.0073 57.1523 45.2522 57.5062 45.5599 57.8008C45.8677 58.0954 46.2319 58.3246 46.6306 58.4747C47.0294 58.6248 47.4543 58.6926 47.88 58.674H80.49C80.9156 58.6926 81.3406 58.6248 81.7393 58.4747C82.138 58.3246 82.5022 58.0954 82.81 57.8008C83.1177 57.5062 83.3626 57.1523 83.53 56.7605C83.6973 56.3687 83.7835 55.9471 83.7835 55.521C83.7835 55.095 83.6973 54.6734 83.53 54.2816C83.3626 53.8898 83.1177 53.5359 82.81 53.2413C82.5022 52.9467 82.138 52.7174 81.7393 52.5673C81.3406 52.4172 80.9156 52.3494 80.49 52.368H47.88Z" fill="#FAFAFA"/>
<path d="M96.2819 59.2739H92.3999C91.4305 59.2352 90.5137 58.8228 89.8415 58.1232C89.1693 57.4236 88.7939 56.4911 88.7939 55.5209C88.7939 54.5508 89.1693 53.6182 89.8415 52.9187C90.5137 52.2191 91.4305 51.8067 92.3999 51.7679H96.2999C97.2693 51.8067 98.186 52.2191 98.8582 52.9187C99.5304 53.6182 99.9058 54.5508 99.9058 55.5209C99.9058 56.4911 99.5304 57.4236 98.8582 58.1232C98.186 58.8228 97.2693 59.2352 96.2999 59.2739H96.2819ZM92.3999 52.3679C91.5874 52.4034 90.82 52.7511 90.2577 53.3385C89.6953 53.9259 89.3814 54.7077 89.3814 55.5209C89.3814 56.3342 89.6953 57.116 90.2577 57.7034C90.82 58.2908 91.5874 58.6385 92.3999 58.6739H96.2999C97.1123 58.6385 97.8797 58.2908 98.442 57.7034C99.0044 57.116 99.3183 56.3342 99.3183 55.5209C99.3183 54.7077 99.0044 53.9259 98.442 53.3385C97.8797 52.7511 97.1123 52.4034 96.2999 52.3679H92.3999Z" fill="#FAFAFA"/>
<path d="M263.4 62.91H36.5999V192.258H263.4V62.91Z" fill="#D1D5DB"/>
<path opacity="0.8" d="M263.4 62.91H36.5999V192.258H263.4V62.91Z" fill="#F5F5F5"/>
<path opacity="0.9" d="M78.744 172.914C76.2238 172.919 73.7055 172.776 71.2019 172.488C56.8019 170.838 44.142 163.974 36.48 153.66C36.4561 153.628 36.4458 153.588 36.4515 153.549C36.4571 153.509 36.4781 153.474 36.51 153.45C36.5418 153.426 36.5818 153.416 36.6212 153.422C36.6605 153.427 36.6961 153.448 36.72 153.48C44.328 163.728 56.91 170.55 71.2319 172.194C82.6859 173.508 94.9799 171.786 109.92 166.794C114.336 165.312 118.806 163.626 123.12 161.994C136.962 156.756 151.272 151.338 166.32 151.932C173.52 152.214 180.72 153.888 187.68 155.532C191.112 156.33 194.658 157.152 198.162 157.8C211.416 160.254 221.604 159.246 229.308 154.722C231.469 153.387 233.535 151.905 235.494 150.288C238.224 148.146 241.038 145.926 244.272 144.54C247.371 143.271 250.726 142.753 254.063 143.029C257.4 143.306 260.624 144.368 263.472 146.13C263.489 146.14 263.504 146.153 263.515 146.169C263.527 146.185 263.535 146.203 263.54 146.222C263.544 146.241 263.545 146.261 263.542 146.28C263.538 146.299 263.531 146.318 263.52 146.334C263.51 146.351 263.497 146.366 263.481 146.378C263.465 146.389 263.447 146.398 263.428 146.402C263.409 146.407 263.389 146.407 263.37 146.404C263.351 146.4 263.332 146.393 263.316 146.382C260.507 144.645 257.327 143.598 254.036 143.325C250.745 143.053 247.436 143.564 244.38 144.816C241.188 146.184 238.38 148.416 235.674 150.528C233.703 152.151 231.627 153.64 229.458 154.986C221.688 159.546 211.428 160.56 198.102 158.094C194.592 157.446 191.04 156.618 187.608 155.82C180.66 154.206 173.472 152.532 166.302 152.256C151.338 151.656 137.046 157.056 123.228 162.3C118.902 163.938 114.426 165.63 110.028 167.1C98.25 171 88.116 172.914 78.744 172.914Z" fill="#FAFAFA"/>
<path d="M226.014 121.89C215.304 121.89 203.76 119.244 189.978 113.646C185.556 111.846 181.08 109.842 176.778 107.898C162.978 101.682 148.668 95.256 133.704 94.776C126.504 94.548 119.352 95.706 112.404 96.828C108.966 97.38 105.414 97.956 101.904 98.352C88.5779 99.87 78.3239 98.118 70.5539 93.006C68.3814 91.5059 66.3053 89.8707 64.338 88.11C61.602 85.8 58.7999 83.4 55.6019 81.774C52.657 80.3015 49.4032 79.5529 46.1108 79.5904C42.8184 79.628 39.5825 80.4506 36.672 81.99C36.6367 82.0077 36.596 82.0113 36.5581 82.0002C36.5203 81.989 36.4881 81.964 36.468 81.93C36.4584 81.9127 36.4525 81.8937 36.4503 81.874C36.4482 81.8544 36.45 81.8345 36.4556 81.8155C36.4611 81.7966 36.4704 81.7789 36.4828 81.7636C36.4952 81.7482 36.5106 81.7354 36.528 81.726C39.4811 80.1684 42.7626 79.3359 46.1012 79.2973C49.4397 79.2587 52.7395 80.0151 55.7279 81.504C58.9559 83.118 61.776 85.536 64.5 87.882C66.457 89.635 68.5231 91.2623 70.6859 92.754C78.3899 97.83 88.5839 99.564 101.838 98.052C105.342 97.656 108.888 97.086 112.32 96.528C119.28 95.406 126.48 94.248 133.674 94.476C148.704 94.962 163.02 101.394 176.874 107.622C181.2 109.566 185.67 111.576 190.074 113.37C205.014 119.436 217.296 122.028 228.762 121.53C243.078 120.93 255.654 114.99 263.262 105.288C263.275 105.274 263.292 105.262 263.31 105.254C263.328 105.247 263.347 105.243 263.367 105.243C263.387 105.243 263.406 105.247 263.424 105.254C263.442 105.262 263.458 105.274 263.472 105.288C263.488 105.3 263.501 105.315 263.511 105.332C263.521 105.349 263.528 105.367 263.53 105.387C263.533 105.406 263.532 105.426 263.527 105.445C263.522 105.464 263.514 105.482 263.502 105.498C255.84 115.266 243.18 121.23 228.774 121.854C227.874 121.872 226.944 121.89 226.014 121.89Z" fill="#D1D5DB"/>
<path opacity="0.7" d="M226.014 121.89C215.304 121.89 203.76 119.244 189.978 113.646C185.556 111.846 181.08 109.842 176.778 107.898C162.978 101.682 148.668 95.256 133.704 94.776C126.504 94.548 119.352 95.706 112.404 96.828C108.966 97.38 105.414 97.956 101.904 98.352C88.5779 99.87 78.3239 98.118 70.5539 93.006C68.3814 91.5059 66.3053 89.8707 64.338 88.11C61.602 85.8 58.7999 83.4 55.6019 81.774C52.657 80.3015 49.4032 79.5529 46.1108 79.5904C42.8184 79.628 39.5825 80.4506 36.672 81.99C36.6367 82.0077 36.596 82.0113 36.5581 82.0002C36.5203 81.989 36.4881 81.964 36.468 81.93C36.4584 81.9127 36.4525 81.8937 36.4503 81.874C36.4482 81.8544 36.45 81.8345 36.4556 81.8155C36.4611 81.7966 36.4704 81.7789 36.4828 81.7636C36.4952 81.7482 36.5106 81.7354 36.528 81.726C39.4811 80.1684 42.7626 79.3359 46.1012 79.2973C49.4397 79.2587 52.7395 80.0151 55.7279 81.504C58.9559 83.118 61.776 85.536 64.5 87.882C66.457 89.635 68.5231 91.2623 70.6859 92.754C78.3899 97.83 88.5839 99.564 101.838 98.052C105.342 97.656 108.888 97.086 112.32 96.528C119.28 95.406 126.48 94.248 133.674 94.476C148.704 94.962 163.02 101.394 176.874 107.622C181.2 109.566 185.67 111.576 190.074 113.37C205.014 119.436 217.296 122.028 228.762 121.53C243.078 120.93 255.654 114.99 263.262 105.288C263.275 105.274 263.292 105.262 263.31 105.254C263.328 105.247 263.347 105.243 263.367 105.243C263.387 105.243 263.406 105.247 263.424 105.254C263.442 105.262 263.458 105.274 263.472 105.288C263.488 105.3 263.501 105.315 263.511 105.332C263.521 105.349 263.528 105.367 263.53 105.387C263.533 105.406 263.532 105.426 263.527 105.445C263.522 105.464 263.514 105.482 263.502 105.498C255.84 115.266 243.18 121.23 228.774 121.854C227.874 121.872 226.944 121.89 226.014 121.89Z" fill="#F5F5F5"/>
<path d="M245.682 188.214H54.3179C50.6944 188.209 47.2206 186.768 44.6584 184.205C42.0962 181.643 40.6547 178.169 40.6499 174.546V80.628C40.6547 77.0044 42.0962 73.5307 44.6584 70.9685C47.2206 68.4063 50.6944 66.9647 54.3179 66.96H245.682C249.305 66.9647 252.779 68.4063 255.341 70.9685C257.904 73.5307 259.345 77.0044 259.35 80.628V174.546C259.345 178.169 257.904 181.643 255.341 184.205C252.779 186.768 249.305 188.209 245.682 188.214ZM54.3179 67.26C50.7739 67.2647 47.3765 68.6747 44.8706 71.1806C42.3646 73.6866 40.9547 77.084 40.9499 80.628V174.546C40.9547 178.09 42.3646 181.487 44.8706 183.993C47.3765 186.499 50.7739 187.909 54.3179 187.914H245.682C249.226 187.909 252.623 186.499 255.129 183.993C257.635 181.487 259.045 178.09 259.05 174.546V80.628C259.045 77.084 257.635 73.6866 255.129 71.1806C252.623 68.6747 249.226 67.2647 245.682 67.26H54.3179Z" fill="#FAFAFA"/>
<path d="M64.4399 142.506H53.2979V192.264H64.4399V142.506Z" fill="#FAFAFA"/>
<path d="M81.0119 132.348H69.8699V192.258H81.0119V132.348Z" fill="#FAFAFA"/>
<path d="M97.578 122.376H86.436V192.264H97.578V122.376Z" fill="#FAFAFA"/>
<path d="M114.15 110.148H103.008V192.258H114.15V110.148Z" fill="#FAFAFA"/>
<path d="M130.716 127.584H119.574V192.258H130.716V127.584Z" fill="#FAFAFA"/>
<path d="M147.288 103.35H136.146V192.264H147.288V103.35Z" fill="#D1D5DB"/>
<path opacity="0.2" d="M147.288 103.35H136.146V192.264H147.288V103.35Z" fill="white"/>
<path d="M143.34 107.94C142.632 109.887 141.331 111.563 139.619 112.73C137.907 113.897 135.871 114.497 133.8 114.444V99.684H142.668C143.372 100.929 143.797 102.312 143.913 103.738C144.029 105.164 143.833 106.597 143.34 107.94Z" fill="#D1D5DB"/>
<path opacity="0.2" d="M143.34 107.94C142.632 109.887 141.331 111.563 139.619 112.73C137.907 113.897 135.871 114.497 133.8 114.444V99.684H142.668C143.372 100.929 143.797 102.312 143.913 103.738C144.029 105.164 143.833 106.597 143.34 107.94Z" fill="white"/>
<path d="M163.854 133.614H152.712V192.258H163.854V133.614Z" fill="#FAFAFA"/>
<path d="M180.426 113.946H169.284V192.264H180.426V113.946Z" fill="#FAFAFA"/>
<path d="M196.992 172.668H185.85V192.258H196.992V172.668Z" fill="#D1D5DB"/>
<path opacity="0.3" d="M196.992 172.668H185.85V192.258H196.992V172.668Z" fill="black"/>
<path d="M213.564 109.026H202.422V192.264H213.564V109.026Z" fill="#FAFAFA"/>
<path d="M230.13 85.95H218.988V192.264H230.13V85.95Z" fill="#D1D5DB"/>
<path opacity="0.2" d="M230.13 85.95H218.988V192.264H230.13V85.95Z" fill="white"/>
<path d="M246.702 135.21H235.56V192.258H246.702V135.21Z" fill="#FAFAFA"/>
<path opacity="0.3" d="M143.34 107.94C142.633 109.887 141.331 111.563 139.619 112.73C137.907 113.897 135.871 114.497 133.8 114.444C132.73 114.417 131.672 114.215 130.668 113.844C128.83 113.174 127.231 111.974 126.075 110.396C124.918 108.817 124.256 106.931 124.171 104.976C124.086 103.021 124.583 101.085 125.599 99.4125C126.614 97.7399 128.103 96.4061 129.877 95.5797C131.651 94.7532 133.63 94.4713 135.563 94.7695C137.497 95.0677 139.299 95.9327 140.742 97.2551C142.184 98.5774 143.202 100.298 143.667 102.199C144.131 104.099 144.022 106.095 143.352 107.934L143.34 107.94Z" fill="#FAFAFA"/>
<path opacity="0.4" d="M141.81 98.4L124.35 106.536C124.32 106.386 124.29 106.242 124.266 106.092C124.112 105.131 124.102 104.152 124.236 103.188L139.314 96.162C140.269 96.7592 141.113 97.5162 141.81 98.4Z" fill="#FAFAFA"/>
<path opacity="0.4" d="M143.94 104.358L127.524 112.002C126.383 111.006 125.488 109.76 124.908 108.36L142.83 100.008C143.529 101.354 143.909 102.842 143.94 104.358Z" fill="#FAFAFA"/>
<path d="M137.946 93.8279C135.828 93.0602 133.529 92.9374 131.341 93.4752C129.153 94.013 127.173 95.1871 125.652 96.8494C124.131 98.5116 123.136 100.587 122.794 102.815C122.452 105.042 122.777 107.32 123.729 109.362C124.681 111.405 126.217 113.119 128.143 114.289C130.069 115.459 132.298 116.032 134.549 115.935C136.801 115.839 138.973 115.078 140.792 113.747C142.61 112.417 143.994 110.578 144.768 108.462C145.283 107.053 145.516 105.557 145.451 104.058C145.387 102.56 145.028 101.088 144.394 99.729C143.761 98.3696 142.865 97.1485 141.758 96.1359C140.652 95.1233 139.356 94.339 137.946 93.8279ZM130.962 113.028C129.29 112.419 127.837 111.329 126.784 109.894C125.732 108.46 125.129 106.746 125.05 104.969C124.971 103.191 125.421 101.43 126.343 99.9088C127.264 98.387 128.616 97.1726 130.228 96.4188C131.839 95.665 133.638 95.4057 135.397 95.6736C137.155 95.9416 138.795 96.7247 140.109 97.9242C141.423 99.1236 142.352 100.686 142.779 102.413C143.205 104.14 143.11 105.955 142.506 107.628C142.103 108.74 141.484 109.762 140.685 110.635C139.887 111.508 138.924 112.215 137.851 112.716C136.779 113.216 135.619 113.5 134.437 113.552C133.255 113.603 132.074 113.421 130.962 113.016V113.028Z" fill="#D1D5DB"/>
<path opacity="0.3" d="M137.946 93.8279C135.828 93.0602 133.529 92.9374 131.341 93.4752C129.153 94.013 127.173 95.1871 125.652 96.8494C124.131 98.5116 123.136 100.587 122.794 102.815C122.452 105.042 122.777 107.32 123.729 109.362C124.681 111.405 126.217 113.119 128.143 114.289C130.069 115.459 132.298 116.032 134.549 115.935C136.801 115.839 138.973 115.078 140.792 113.747C142.61 112.417 143.994 110.578 144.768 108.462C145.283 107.053 145.516 105.557 145.451 104.058C145.387 102.56 145.028 101.088 144.394 99.729C143.761 98.3696 142.865 97.1485 141.758 96.1359C140.652 95.1233 139.356 94.339 137.946 93.8279ZM130.962 113.028C129.29 112.419 127.837 111.329 126.784 109.894C125.732 108.46 125.129 106.746 125.05 104.969C124.971 103.191 125.421 101.43 126.343 99.9088C127.264 98.387 128.616 97.1726 130.228 96.4188C131.839 95.665 133.638 95.4057 135.397 95.6736C137.155 95.9416 138.795 96.7247 140.109 97.9242C141.423 99.1236 142.352 100.686 142.779 102.413C143.205 104.14 143.11 105.955 142.506 107.628C142.103 108.74 141.484 109.762 140.685 110.635C139.887 111.508 138.924 112.215 137.851 112.716C136.779 113.216 135.619 113.5 134.437 113.552C133.255 113.603 132.074 113.421 130.962 113.016V113.028Z" fill="black"/>
<path d="M131.67 114.39C131.1 117.144 130.308 119.826 129.486 122.49C129.048 123.816 128.64 125.148 128.166 126.456L127.47 128.43C127.361 128.806 127.167 129.152 126.903 129.442C126.638 129.731 126.311 129.955 125.946 130.098C125.558 130.264 125.121 130.275 124.724 130.13C124.327 129.986 124 129.695 123.81 129.318C123.622 128.975 123.516 128.592 123.499 128.201C123.482 127.81 123.556 127.42 123.714 127.062L124.452 125.106C124.932 123.798 125.478 122.514 125.994 121.218C127.074 118.644 128.196 116.088 129.534 113.61C129.662 113.362 129.876 113.169 130.136 113.067C130.396 112.966 130.684 112.963 130.946 113.058C131.208 113.154 131.426 113.342 131.56 113.587C131.693 113.832 131.732 114.118 131.67 114.39Z" fill="#D1D5DB"/>
<path opacity="0.3" d="M131.67 114.39C131.1 117.144 130.308 119.826 129.486 122.49C129.048 123.816 128.64 125.148 128.166 126.456L127.47 128.43C127.361 128.806 127.167 129.152 126.903 129.442C126.638 129.731 126.311 129.955 125.946 130.098C125.558 130.264 125.121 130.275 124.724 130.13C124.327 129.986 124 129.695 123.81 129.318C123.622 128.975 123.516 128.592 123.499 128.201C123.482 127.81 123.556 127.42 123.714 127.062L124.452 125.106C124.932 123.798 125.478 122.514 125.994 121.218C127.074 118.644 128.196 116.088 129.534 113.61C129.662 113.362 129.876 113.169 130.136 113.067C130.396 112.966 130.684 112.963 130.946 113.058C131.208 113.154 131.426 113.342 131.56 113.587C131.693 113.832 131.732 114.118 131.67 114.39Z" fill="black"/>
<path d="M87.3241 111.768C87.2161 111.918 87.0421 112.182 86.9041 112.398L86.4541 113.1C86.1601 113.574 85.8541 114.06 85.6141 114.558C85.0744 115.531 84.5877 116.532 84.1561 117.558C83.3068 119.548 82.7802 121.66 82.5961 123.816V124.218V124.302C82.5961 124.356 82.7041 124.53 83.0101 124.704C83.8753 125.117 84.8085 125.369 85.7641 125.448C88.0698 125.673 90.3909 125.693 92.7001 125.508L93.2221 127.998C90.7492 128.799 88.1762 129.25 85.5781 129.336C84.8784 129.342 84.179 129.304 83.4841 129.222C82.6941 129.129 81.9207 128.927 81.1861 128.622C80.2224 128.239 79.3892 127.587 78.7861 126.744C78.4595 126.255 78.2256 125.71 78.0961 125.136C77.9967 124.669 77.9504 124.192 77.9581 123.714C77.9506 120.973 78.4594 118.256 79.4581 115.704C79.9184 114.458 80.4637 113.245 81.0901 112.074C81.4021 111.474 81.7381 110.922 82.0861 110.358C82.2601 110.076 82.4401 109.794 82.6321 109.518C82.8241 109.242 82.9981 108.984 83.2321 108.648L87.3241 111.768Z" fill="#E4897B"/>
<path d="M85.5301 103.422C83.4541 103.926 78.5461 112.11 78.5461 112.11L89.5441 116.664C89.5441 116.664 91.5301 110.436 90.2821 107.946C88.9861 105.354 88.3321 102.732 85.5301 103.422Z" fill="#D1D5DB"/>
<path opacity="0.2" d="M85.5301 103.422C83.4541 103.926 78.5461 112.11 78.5461 112.11L89.5441 116.664C89.5441 116.664 91.5301 110.436 90.2821 107.946C88.9861 105.354 88.3321 102.732 85.5301 103.422Z" fill="black"/>
<path d="M93.1621 125.25L98.2021 124.716L95.4001 128.952C95.4001 128.952 92.1841 128.658 91.3621 126.732L93.1621 125.25Z" fill="#E4897B"/>
<path d="M101.796 126.96L97.9261 131.166L95.3701 128.952L98.2021 124.716L101.796 126.96Z" fill="#E4897B"/>
<path d="M86.5321 247.332C86.0829 247.321 85.6362 247.26 85.2001 247.152C85.1782 247.146 85.1584 247.134 85.1435 247.117C85.1285 247.1 85.119 247.078 85.1161 247.056C85.1118 247.033 85.1141 247.01 85.1226 246.989C85.1311 246.968 85.1455 246.949 85.1641 246.936C85.3381 246.822 86.8501 245.838 87.4441 246.102C87.51 246.132 87.5669 246.179 87.609 246.238C87.6511 246.297 87.677 246.366 87.6841 246.438C87.7069 246.552 87.7007 246.67 87.6662 246.781C87.6316 246.892 87.5697 246.993 87.4861 247.074C87.2083 247.269 86.8706 247.361 86.5321 247.332ZM85.5421 246.984C86.4181 247.158 87.0721 247.128 87.3421 246.894C87.3977 246.841 87.438 246.774 87.4591 246.7C87.4802 246.626 87.4813 246.548 87.4621 246.474C87.4624 246.441 87.4529 246.408 87.4348 246.38C87.4166 246.353 87.3906 246.331 87.3601 246.318C87.0361 246.186 86.1601 246.6 85.5421 246.984Z" fill="#D1D5DB"/>
<path d="M85.2301 247.158C85.1988 247.156 85.1691 247.143 85.1469 247.121C85.1247 247.099 85.1116 247.069 85.1101 247.038C85.1101 246.978 85.1101 245.532 85.6501 245.046C85.7161 244.982 85.7959 244.934 85.8833 244.906C85.9706 244.878 86.0633 244.871 86.1541 244.884C86.2496 244.885 86.3418 244.919 86.415 244.98C86.4883 245.041 86.5381 245.126 86.5561 245.22C86.6701 245.784 85.7641 246.87 85.2901 247.14C85.2722 247.151 85.2514 247.158 85.2301 247.158ZM86.0701 245.118C85.9732 245.118 85.8804 245.157 85.8121 245.226C85.4995 245.692 85.3401 246.243 85.3561 246.804C85.8301 246.426 86.3941 245.604 86.3221 245.268C86.3221 245.208 86.2801 245.142 86.1241 245.124L86.0701 245.118Z" fill="#D1D5DB"/>
<path d="M109.392 247.332C108.86 247.32 108.33 247.26 107.808 247.152C107.785 247.148 107.763 247.137 107.747 247.119C107.731 247.102 107.721 247.08 107.718 247.056C107.713 247.031 107.716 247.005 107.727 246.983C107.738 246.96 107.756 246.941 107.778 246.93C108.006 246.816 109.998 245.79 110.616 246.126C110.675 246.157 110.724 246.202 110.76 246.258C110.796 246.314 110.816 246.378 110.82 246.444C110.839 246.553 110.829 246.666 110.792 246.771C110.755 246.876 110.693 246.97 110.61 247.044C110.248 247.275 109.819 247.376 109.392 247.332ZM108.192 246.984C109.308 247.17 110.136 247.122 110.442 246.846C110.492 246.798 110.53 246.738 110.553 246.673C110.576 246.607 110.583 246.537 110.574 246.468C110.574 246.44 110.566 246.413 110.551 246.39C110.536 246.367 110.515 246.348 110.49 246.336C110.166 246.156 109.026 246.6 108.204 246.984H108.192Z" fill="#D1D5DB"/>
<path d="M107.832 247.158C107.811 247.166 107.787 247.166 107.766 247.158C107.749 247.146 107.735 247.13 107.725 247.111C107.716 247.092 107.711 247.071 107.712 247.05C107.712 246.996 107.826 245.64 108.456 245.118C108.546 245.039 108.65 244.98 108.764 244.944C108.878 244.908 108.997 244.895 109.116 244.908C109.446 244.944 109.542 245.112 109.56 245.25C109.656 245.85 108.492 246.894 107.88 247.17L107.832 247.158ZM109.032 245.118C108.88 245.119 108.733 245.174 108.618 245.274C108.266 245.719 108.057 246.261 108.018 246.828C108.618 246.456 109.428 245.628 109.368 245.262C109.368 245.262 109.368 245.142 109.134 245.124L109.032 245.118Z" fill="#D1D5DB"/>
<path d="M94.296 91.266C94.896 94.266 96.264 100.266 94.188 102.276C94.188 102.276 95.022 105.276 100.566 105.276C106.656 105.276 103.458 102.276 103.458 102.276C100.128 101.484 100.194 99.018 100.764 96.702L94.296 91.266Z" fill="#E4897B"/>
<path d="M106.872 85.956C106.807 85.9554 106.745 85.9296 106.698 85.884C106.654 85.8391 106.629 85.7788 106.629 85.716C106.629 85.6532 106.654 85.5929 106.698 85.548C106.969 85.2861 107.297 85.0916 107.656 84.98C108.016 84.8685 108.397 84.8431 108.768 84.906C108.799 84.913 108.827 84.9261 108.853 84.9445C108.878 84.9629 108.9 84.9862 108.916 85.0131C108.932 85.04 108.943 85.0698 108.947 85.1009C108.952 85.132 108.95 85.1636 108.942 85.194C108.936 85.2245 108.923 85.2534 108.905 85.2791C108.888 85.3047 108.865 85.3265 108.839 85.3433C108.813 85.3601 108.783 85.3714 108.753 85.3767C108.722 85.382 108.69 85.381 108.66 85.374C108.366 85.322 108.063 85.3418 107.778 85.4316C107.493 85.5215 107.233 85.6787 107.022 85.89C107.003 85.9105 106.979 85.9269 106.954 85.9382C106.928 85.9496 106.9 85.9556 106.872 85.956Z" fill="#263238"/>
<path d="M107.604 89.022C107.747 90.0076 108.026 90.9687 108.432 91.878C108.197 91.9749 107.943 92.0187 107.689 92.0063C107.435 91.9939 107.187 91.9254 106.962 91.806L107.604 89.022Z" fill="#DE5753"/>
<path d="M107.4 88.26C107.31 88.656 107.448 89.028 107.706 89.088C107.964 89.148 108.246 88.878 108.306 88.488C108.366 88.098 108.264 87.726 108.006 87.66C107.748 87.594 107.496 87.864 107.4 88.26Z" fill="#263238"/>
<path d="M107.922 87.648L108.93 87.6C108.93 87.6 108.276 88.23 107.922 87.648Z" fill="#263238"/>
<path d="M102.306 247.038H107.334L107.592 235.398H102.564L102.306 247.038Z" fill="#E4897B"/>
<path d="M79.4702 247.038H84.4982L86.0402 235.398H81.0122L79.4702 247.038Z" fill="#E4897B"/>
<path d="M84.8041 246.456H79.1581C79.0614 246.454 78.9674 246.487 78.8942 246.551C78.8211 246.614 78.774 246.702 78.7621 246.798L78.1621 251.268C78.1521 251.381 78.1658 251.495 78.2022 251.603C78.2387 251.711 78.2971 251.81 78.3738 251.894C78.4505 251.978 78.5438 252.045 78.6478 252.091C78.7519 252.138 78.8643 252.162 78.9781 252.162C80.9461 252.126 81.8941 252.012 84.3781 252.012C85.9021 252.012 88.1341 252.168 90.2461 252.168C92.3581 252.168 92.4541 250.08 91.5721 249.894C87.6301 249.048 87.0001 247.878 85.6681 246.762C85.4248 246.562 85.1191 246.454 84.8041 246.456Z" fill="#263238"/>
<path d="M107.502 246.456H101.856C101.759 246.455 101.665 246.489 101.591 246.552C101.517 246.615 101.469 246.702 101.454 246.798L100.854 251.268C100.842 251.381 100.855 251.496 100.89 251.604C100.925 251.712 100.983 251.811 101.06 251.896C101.136 251.98 101.229 252.047 101.334 252.093C101.438 252.139 101.55 252.163 101.664 252.162C103.632 252.126 104.58 252.012 107.064 252.012C108.594 252.012 111.756 252.168 113.862 252.168C115.968 252.168 116.07 250.08 115.194 249.894C111.246 249.048 109.692 247.878 108.354 246.762C108.115 246.563 107.813 246.455 107.502 246.456Z" fill="#263238"/>
<path d="M107.592 235.404L107.46 241.398H102.432L102.564 235.404H107.592Z" fill="#CE6F64"/>
<path d="M81.0121 235.404H86.0401L85.2421 241.398H80.2141L81.0121 235.404Z" fill="#CE6F64"/>
<path d="M111.96 103.566C111.96 103.566 114.36 104.412 109.758 133.896H89.358C89.646 125.592 89.622 120.468 85.542 103.422C88.3966 102.832 91.2902 102.449 94.2 102.276C97.2862 102.06 100.384 102.06 103.47 102.276C107.442 102.642 111.96 103.566 111.96 103.566Z" fill="#D1D5DB"/>
<path opacity="0.2" d="M111.96 103.566C111.96 103.566 114.36 104.412 109.758 133.896H89.358C89.646 125.592 89.622 120.468 85.542 103.422C88.3966 102.832 91.2902 102.449 94.2 102.276C97.2862 102.06 100.384 102.06 103.47 102.276C107.442 102.642 111.96 103.566 111.96 103.566Z" fill="black"/>
<path d="M113.61 109.158C114.048 111.732 114.618 114.426 115.26 116.994C115.59 118.284 115.962 119.556 116.376 120.792C116.763 122.002 117.234 123.182 117.786 124.326C118.037 124.853 118.323 125.362 118.644 125.85C118.794 126.084 118.95 126.282 119.106 126.486C119.198 126.607 119.3 126.719 119.412 126.822C119.557 126.964 119.749 127.048 119.952 127.056C120.353 127.05 120.746 126.954 121.104 126.774C122.167 126.242 123.145 125.557 124.008 124.74C124.476 124.308 124.95 123.852 125.412 123.384C125.874 122.916 126.33 122.4 126.744 121.938L128.892 123.3C128.564 123.966 128.2 124.613 127.8 125.238C127.413 125.861 126.99 126.462 126.534 127.038C125.583 128.324 124.416 129.434 123.084 130.32C122.256 130.867 121.314 131.219 120.33 131.352C119.138 131.499 117.932 131.234 116.91 130.602C116.452 130.31 116.031 129.963 115.656 129.57C115.363 129.254 115.087 128.924 114.828 128.58C114.347 127.951 113.91 127.289 113.52 126.6C112.147 123.979 111.074 121.212 110.322 118.35C109.938 116.964 109.578 115.578 109.29 114.15C109.002 112.722 108.732 111.372 108.522 109.896L113.61 109.158Z" fill="#E4897B"/>
<path d="M111.96 103.566C114.036 104.094 115.56 112.62 115.56 112.62L107.604 118.05C107.604 118.05 104.346 107.898 105.924 105.624C107.55 103.248 108.936 102.798 111.96 103.566Z" fill="#D1D5DB"/>
<path opacity="0.2" d="M111.96 103.566C114.036 104.094 115.56 112.62 115.56 112.62L107.604 118.05C107.604 118.05 104.346 107.898 105.924 105.624C107.55 103.248 108.936 102.798 111.96 103.566Z" fill="black"/>
<path d="M128.61 123.69L131.334 119.802L126.6 119.7C126.6 119.7 125.484 121.95 126.24 123.9L128.61 123.69Z" fill="#E4897B"/>
<path d="M131.76 117.774L131.616 117.396C131.584 117.314 131.534 117.241 131.469 117.182C131.403 117.123 131.325 117.081 131.24 117.058C131.156 117.035 131.067 117.033 130.981 117.051C130.895 117.069 130.815 117.107 130.746 117.162L129.408 118.23C129.214 118.387 128.975 118.48 128.726 118.495C128.476 118.51 128.228 118.447 128.016 118.314L127.602 117.846C127.562 117.797 127.511 117.757 127.453 117.73C127.396 117.703 127.333 117.689 127.269 117.689C127.205 117.689 127.143 117.703 127.085 117.73C127.028 117.757 126.977 117.797 126.936 117.846L126.834 117.966C126.617 118.23 126.48 118.551 126.438 118.89L126.204 120.846L127.2 120.06L131.34 119.79L131.724 118.962C131.81 118.777 131.857 118.576 131.863 118.372C131.869 118.167 131.834 117.964 131.76 117.774Z" fill="#E4897B"/>
<path d="M94.4581 83.7599C93.6361 88.6859 93.1861 90.7499 95.0581 93.8219C97.8781 98.4359 104.094 98.4059 106.362 93.8219C108.408 89.7119 109.404 82.3499 105.108 79.2959C104.169 78.616 103.07 78.1891 101.918 78.0563C100.766 77.9235 99.5992 78.0892 98.5297 78.5375C97.4602 78.9858 96.5239 79.7016 95.8109 80.6162C95.0978 81.5308 94.632 82.6134 94.4581 83.7599Z" fill="#E4897B"/>
<path d="M107.616 111.45C112.416 117.342 103.416 124.716 92.2022 122.376C76.1462 119.016 89.8022 112.05 84.4682 106.998C79.1342 101.946 83.8202 98.802 87.0662 95.052C90.3122 91.302 90.5582 91.188 90.3182 84C90.0782 76.812 98.1602 75 104.214 77.052C108.618 78.552 106.614 85.38 104.052 88.89C101.49 92.4 108.492 94.548 108.03 99.348C107.568 104.148 103.11 105.948 107.616 111.45Z" fill="#263238"/>
<path d="M100.326 76.2959C105.474 75.7499 108.912 76.4099 109.326 80.6819C109.74 84.9539 103.41 87.4499 103.41 87.4499L100.326 76.2959Z" fill="#263238"/>
<path d="M102.492 88.0559C102.38 89.0175 102.649 89.9848 103.242 90.7499C104.04 91.7519 105.18 91.2239 105.582 90.0839C105.948 89.0579 105.966 87.2939 104.868 86.6999C104.626 86.5756 104.358 86.5135 104.086 86.5194C103.814 86.5253 103.548 86.5989 103.312 86.7336C103.076 86.8683 102.878 87.0598 102.734 87.2907C102.591 87.5216 102.508 87.7846 102.492 88.0559Z" fill="#E4897B"/>
<path d="M104.364 133.902C104.364 133.902 103.236 144.258 101.736 156.792C100.776 164.79 99.6662 173.676 98.5982 181.326C98.3342 183.264 98.0642 185.118 97.8062 186.864C95.4662 202.566 86.4482 240.264 86.4482 240.264H79.5962C79.5962 240.264 83.4242 203.85 84.5642 188.316C87.4502 149.022 82.8662 143.034 89.3642 133.926L104.364 133.902Z" fill="#263238"/>
<path d="M87.576 240.354H78.468L78.624 237.114L88.326 236.868L87.576 240.354Z" fill="#D1D5DB"/>
<path opacity="0.8" d="M87.576 240.354H78.468L78.624 237.114L88.326 236.868L87.576 240.354Z" fill="white"/>
<path opacity="0.4" d="M101.736 156.792C100.776 164.79 99.6661 173.676 98.5981 181.326C97.0021 173.202 93.4021 153.126 99.0601 149.598C100.422 151.398 101.268 153.912 101.736 156.792Z" fill="black"/>
<path d="M109.758 133.896C109.758 133.896 113.004 171.648 112.758 186.972C112.518 202.914 108.498 240.24 108.498 240.24H101.724C101.724 240.24 100.98 203.844 100.278 188.19C99.51 171.12 94.812 133.896 94.812 133.896H109.758Z" fill="#263238"/>
<path d="M109.542 240.354H100.602L100.44 237.114L110.292 236.868L109.542 240.354Z" fill="#D1D5DB"/>
<path opacity="0.8" d="M109.542 240.354H100.602L100.44 237.114L110.292 236.868L109.542 240.354Z" fill="white"/>
<path d="M89.0341 132.702L88.1221 134.502C88.0561 134.646 88.2241 134.79 88.4581 134.79H109.866C110.046 134.79 110.202 134.7 110.208 134.586L110.382 132.786C110.382 132.66 110.232 132.552 110.034 132.552H89.3641C89.3008 132.546 89.2371 132.557 89.1793 132.583C89.1214 132.61 89.0714 132.65 89.0341 132.702Z" fill="#D1D5DB"/>
<path opacity="0.5" d="M89.0341 132.702L88.1221 134.502C88.0561 134.646 88.2241 134.79 88.4581 134.79H109.866C110.046 134.79 110.202 134.7 110.208 134.586L110.382 132.786C110.382 132.66 110.232 132.552 110.034 132.552H89.3641C89.3008 132.546 89.2371 132.557 89.1793 132.583C89.1214 132.61 89.0714 132.65 89.0341 132.702Z" fill="white"/>
<path d="M91.8002 135H91.2482C91.1342 135 91.0502 134.946 91.0562 134.874L91.3022 132.474C91.3022 132.408 91.4042 132.348 91.5182 132.348H92.0702C92.1782 132.348 92.2622 132.408 92.2562 132.474L92.0102 134.874C92.0282 134.958 91.9322 135 91.8002 135Z" fill="#263238"/>
<path d="M105.24 135H104.688C104.58 135 104.496 134.946 104.502 134.874L104.742 132.474C104.742 132.408 104.85 132.348 104.958 132.348H105.51C105.624 132.348 105.708 132.408 105.702 132.474L105.456 134.874C105.45 134.958 105.354 135 105.24 135Z" fill="#263238"/>
</svg>
