<svg width="486" height="198" viewBox="0 0 486 198" fill="none" xmlns="http://www.w3.org/2000/svg">
<g clip-path="url(#clip0_134_635)">
<rect width="486" height="198" rx="16" fill="#ECF39E"/>
<mask id="mask0_134_635" style="mask-type:alpha" maskUnits="userSpaceOnUse" x="265" y="-116" width="350" height="350">
<rect x="265" y="-116" width="350" height="350" fill="#D9D9D9"/>
</mask>
<g mask="url(#mask0_134_635)">
<path d="M422.865 200.458V171.291H393.698V139.208H422.865V106.76C402.691 102.871 386.103 93.0016 373.099 77.1519C360.096 61.3047 353.594 43.1011 353.594 22.541C353.594 -1.50447 362.038 -21.9175 378.925 -38.698C395.815 -55.4762 416.173 -63.8652 440 -63.8652C463.827 -63.8652 484.185 -55.4762 501.075 -38.698C517.963 -21.9175 526.406 -1.50447 526.406 22.541C526.406 43.1011 519.905 61.3047 506.901 77.1519C493.898 93.0016 477.309 102.871 457.136 106.76V139.208H486.302V171.291H457.136V200.458H422.865ZM439.927 74.6764C454.559 74.6764 466.919 69.6573 477.005 59.6191C487.092 49.581 492.136 37.2459 492.136 22.6139C492.136 7.98199 487.116 -4.37739 477.078 -14.4642C467.04 -24.551 454.705 -29.5944 440.073 -29.5944C425.441 -29.5944 413.082 -24.5753 402.995 -14.5371C392.908 -4.49892 387.865 7.83614 387.865 22.4681C387.865 37.1 392.884 49.4594 402.922 59.5462C412.96 69.633 425.295 74.6764 439.927 74.6764Z" fill="#31572C"/>
</g>
</g>
<defs>
<clipPath id="clip0_134_635">
<rect width="486" height="198" rx="16" fill="white"/>
</clipPath>
</defs>
</svg>
