<svg width="251" height="61" viewBox="0 0 251 61" fill="none" xmlns="http://www.w3.org/2000/svg">
<path d="M36.4573 54.0804C42.0754 54.3289 46.7779 52.2874 50.9394 48.7714C52.1583 47.7415 53.3656 46.6939 54.6843 45.7913C56.1028 44.8204 57.1352 44.7347 57.9245 45.4728C58.601 46.1054 58.5778 47.1905 57.8047 48.6265C57.0286 50.0682 55.9329 51.2696 54.8072 52.4387C50.9777 56.4157 46.4109 59.1552 41.0033 60.328C35.0317 61.6233 29.1758 61.0203 23.5219 58.743C16.2863 55.8287 10.5501 51.0213 6.25166 44.5454C2.88656 39.4756 0.827572 33.8905 0.164364 27.8151C-0.00645043 26.2504 -0.120556 24.6892 0.22136 23.1359C0.407915 22.2884 0.882031 21.6397 1.67314 21.241C2.16072 20.9952 2.4882 21.0853 2.6939 21.6276C3.11334 22.7334 3.53014 23.842 4.00319 24.9254C6.42139 30.4636 9.98477 35.0485 15.176 38.2689C17.4519 39.6808 19.9194 40.6509 22.5145 41.2336C26.2681 42.0763 29.8725 43.3497 33.4453 44.7389C35.0542 45.3645 36.7293 45.7724 38.3909 46.2241C39.0392 46.4004 39.664 46.6413 40.2201 47.028C41.6776 48.0414 41.6115 49.9604 40.0695 50.8226C38.4792 51.7117 36.752 51.8394 34.9767 51.6571C33.5062 51.5061 32.1205 51.0255 30.7204 50.5975C30.4256 50.5074 30.1322 50.4054 29.8308 50.346C29.4645 50.2738 29.1741 50.4276 28.9785 50.7417C28.7558 51.0993 28.9244 51.3953 29.1772 51.6364C29.8828 52.3094 30.7786 52.6564 31.6617 53.0079C33.1779 53.6114 34.7695 53.9034 36.4573 54.0804Z" fill="#2563EB"/>
<path d="M57.0568 15.0071C61.7204 10.9702 66.5443 7.24709 71.9349 4.32021C75.4049 2.43615 78.9871 0.823331 82.9041 0.0946061C83.618 -0.0381921 84.3374 -0.0656411 85.0276 0.242008C85.7908 0.582194 85.846 0.864974 85.2007 1.37254C84.6957 1.76973 84.1688 2.14405 83.625 2.48607C76.4602 6.99177 70.2554 12.5814 64.7861 19.025C59.4809 25.2753 55.1014 32.1409 51.119 39.2788C50.592 40.2233 50.0633 41.1656 49.4187 42.0376C46.6098 45.837 42.1133 46.2776 38.6276 43.0871C37.1415 41.7269 35.8825 40.1612 34.6026 38.6136C32.6304 36.2289 30.5402 33.9578 28.0967 32.0395C26.1889 30.5417 24.1196 29.3761 21.6753 29.0223C21.2511 28.9609 21.0084 28.8228 21.0726 28.3367C21.3945 25.9005 24.2732 23.1988 26.6562 23.0267C28.7866 22.8728 30.7284 23.3846 32.5682 24.4253C34.0729 25.2765 35.4696 26.2876 36.8993 27.2515C38.0357 28.0176 39.189 28.675 40.6614 28.6416C42.2305 28.6061 43.4696 27.895 44.6672 27.0295C46.0102 26.0588 47.145 24.8572 48.2563 23.642C51.0221 20.6176 53.9999 17.8117 57.0568 15.0071Z" fill="#DBEAFE"/>
<path d="M107.138 29.864C107.138 31.328 106.802 32.672 106.13 33.896C105.458 35.096 104.426 36.068 103.034 36.812C101.642 37.556 99.9139 37.928 97.8499 37.928H94.0339V47H87.8779V21.728H97.8499C99.8659 21.728 101.57 22.076 102.962 22.772C104.354 23.468 105.398 24.428 106.094 25.652C106.79 26.876 107.138 28.28 107.138 29.864ZM97.3819 33.032C98.5579 33.032 99.4339 32.756 100.01 32.204C100.586 31.652 100.874 30.872 100.874 29.864C100.874 28.856 100.586 28.076 100.01 27.524C99.4339 26.972 98.5579 26.696 97.3819 26.696H94.0339V33.032H97.3819ZM109.119 36.92C109.119 34.856 109.503 33.044 110.271 31.484C111.063 29.924 112.131 28.724 113.475 27.884C114.819 27.044 116.319 26.624 117.975 26.624C119.391 26.624 120.627 26.912 121.683 27.488C122.763 28.064 123.591 28.82 124.167 29.756V26.912H130.323V47H124.167V44.156C123.567 45.092 122.727 45.848 121.647 46.424C120.591 47 119.355 47.288 117.939 47.288C116.307 47.288 114.819 46.868 113.475 46.028C112.131 45.164 111.063 43.952 110.271 42.392C109.503 40.808 109.119 38.984 109.119 36.92ZM124.167 36.956C124.167 35.42 123.735 34.208 122.871 33.32C122.031 32.432 120.999 31.988 119.775 31.988C118.551 31.988 117.507 32.432 116.643 33.32C115.803 34.184 115.383 35.384 115.383 36.92C115.383 38.456 115.803 39.68 116.643 40.592C117.507 41.48 118.551 41.924 119.775 41.924C120.999 41.924 122.031 41.48 122.871 40.592C123.735 39.704 124.167 38.492 124.167 36.956ZM155.296 26.912L142.696 56.54H136.072L140.68 46.316L132.508 26.912H139.384L144.028 39.476L148.636 26.912H155.296ZM173.974 21.728V26.66H163.678V31.988H171.382V36.776H163.678V47H157.522V21.728H173.974ZM183.366 20.36V47H177.21V20.36H183.366ZM196.971 47.288C195.003 47.288 193.227 46.868 191.643 46.028C190.083 45.188 188.847 43.988 187.935 42.428C187.047 40.868 186.603 39.044 186.603 36.956C186.603 34.892 187.059 33.08 187.971 31.52C188.883 29.936 190.131 28.724 191.715 27.884C193.299 27.044 195.075 26.624 197.043 26.624C199.011 26.624 200.787 27.044 202.371 27.884C203.955 28.724 205.203 29.936 206.115 31.52C207.027 33.08 207.483 34.892 207.483 36.956C207.483 39.02 207.015 40.844 206.079 42.428C205.167 43.988 203.907 45.188 202.299 46.028C200.715 46.868 198.939 47.288 196.971 47.288ZM196.971 41.96C198.147 41.96 199.143 41.528 199.959 40.664C200.799 39.8 201.219 38.564 201.219 36.956C201.219 35.348 200.811 34.112 199.995 33.248C199.203 32.384 198.219 31.952 197.043 31.952C195.843 31.952 194.847 32.384 194.055 33.248C193.263 34.088 192.867 35.324 192.867 36.956C192.867 38.564 193.251 39.8 194.019 40.664C194.811 41.528 195.795 41.96 196.971 41.96ZM239.585 26.912L234.149 47H227.345L224.177 33.968L220.901 47H214.133L208.661 26.912H214.817L217.661 41.276L221.045 26.912H227.561L230.981 41.204L233.789 26.912H239.585ZM244.813 47.288C243.733 47.288 242.845 46.976 242.149 46.352C241.477 45.704 241.141 44.912 241.141 43.976C241.141 43.016 241.477 42.212 242.149 41.564C242.845 40.916 243.733 40.592 244.813 40.592C245.869 40.592 246.733 40.916 247.405 41.564C248.101 42.212 248.449 43.016 248.449 43.976C248.449 44.912 248.101 45.704 247.405 46.352C246.733 46.976 245.869 47.288 244.813 47.288Z" fill="black"/>
</svg>
