<svg width="291" height="213" viewBox="0 0 291 213" fill="none" xmlns="http://www.w3.org/2000/svg">
<path d="M125.206 180.896C142.96 181.681 157.82 175.23 170.97 164.119C174.822 160.865 178.637 157.554 182.804 154.702C187.287 151.634 190.549 151.363 193.043 153.696C195.181 155.695 195.108 159.123 192.665 163.661C190.212 168.217 186.75 172.014 183.193 175.708C171.091 188.275 156.66 196.932 139.572 200.639C120.701 204.731 102.196 202.826 84.33 195.63C61.4653 186.42 43.3386 171.229 29.7555 150.765C19.1216 134.744 12.6152 117.095 10.5194 97.8966C9.97962 92.952 9.61904 88.0186 10.6995 83.1103C11.289 80.4321 12.7872 78.382 15.2872 77.1221C16.8279 76.3456 17.8628 76.6301 18.5128 78.3439C19.8383 81.8383 21.1554 85.3415 22.6502 88.7651C30.2918 106.266 41.5522 120.754 57.9565 130.931C65.1485 135.392 72.9459 138.458 81.1465 140.299C93.008 142.962 104.398 146.986 115.688 151.376C120.773 153.353 126.066 154.642 131.317 156.07C133.365 156.627 135.339 157.388 137.097 158.61C141.703 161.812 141.494 167.877 136.621 170.601C131.596 173.411 126.138 173.814 120.528 173.238C115.881 172.761 111.502 171.242 107.077 169.89C106.146 169.605 105.219 169.283 104.266 169.095C103.109 168.867 102.191 169.353 101.573 170.345C100.869 171.476 101.402 172.411 102.201 173.173C104.431 175.299 107.261 176.396 110.052 177.507C114.843 179.414 119.873 180.336 125.206 180.896Z" fill="#2563EB"/>
<path d="M190.302 57.423C205.039 44.6662 220.282 32.9011 237.317 23.652C248.282 17.6983 259.602 12.6018 271.98 10.299C274.236 9.87931 276.509 9.79257 278.69 10.7648C281.102 11.8398 281.277 12.7333 279.237 14.3373C277.642 15.5924 275.977 16.7753 274.258 17.8561C251.617 32.0942 232.01 49.7577 214.726 70.1197C197.962 89.8707 184.123 111.566 171.538 134.122C169.873 137.107 168.202 140.085 166.165 142.84C157.289 154.846 143.08 156.239 132.065 146.157C127.369 141.858 123.39 136.911 119.346 132.02C113.114 124.485 106.508 117.308 98.7868 111.246C92.7582 106.513 86.2191 102.83 78.495 101.712C77.1544 101.518 76.3875 101.081 76.5904 99.5448C77.6077 91.8466 86.7045 83.3089 94.2348 82.765C100.967 82.2788 107.103 83.8961 112.917 87.1849C117.672 89.8746 122.086 93.0697 126.603 96.1155C130.194 98.5366 133.839 100.614 138.492 100.509C143.45 100.396 147.366 98.1491 151.15 95.414C155.394 92.3468 158.98 88.5495 162.492 84.7094C171.232 75.1524 180.642 66.2856 190.302 57.423Z" fill="#DBEAFE"/>
</svg>
