<svg width="164" height="39" viewBox="0 0 164 39" fill="none" xmlns="http://www.w3.org/2000/svg">
<g clip-path="url(#clip0_190_566)">
<path d="M22.8362 33.8749C26.3552 34.0305 29.3008 32.7517 31.9075 30.5494C32.671 29.9043 33.4272 29.2481 34.2532 28.6827C35.1417 28.0746 35.7884 28.0209 36.2828 28.4832C36.7066 28.8795 36.6921 29.5591 36.2078 30.4586C35.7217 31.3617 35.0354 32.1142 34.3302 32.8465C31.9315 35.3376 29.0709 37.0536 25.6837 37.7883C21.9432 38.5996 18.2752 38.2219 14.7337 36.7954C10.2014 34.9699 6.60838 31.9587 3.91592 27.9023C1.80809 24.7267 0.518376 21.2282 0.102955 17.4228C-0.00404043 16.4426 -0.0755143 15.4647 0.138656 14.4918C0.255511 13.961 0.552488 13.5546 1.04803 13.3048C1.35343 13.1509 1.55856 13.2073 1.68741 13.547C1.95014 14.2397 2.21122 14.9341 2.50752 15.6127C4.02224 19.0817 6.25427 21.9536 9.50594 23.9708C10.9315 24.8552 12.4771 25.4629 14.1027 25.8278C16.4538 26.3557 18.7116 27.1533 20.9495 28.0235C21.9573 28.4154 23.0065 28.6708 24.0474 28.9538C24.4534 29.0642 24.8448 29.2151 25.1931 29.4573C26.1061 30.0921 26.0647 31.2942 25.0988 31.8342C24.1026 32.3911 23.0208 32.4711 21.9088 32.3569C20.9877 32.2624 20.1197 31.9613 19.2427 31.6932C19.058 31.6368 18.8742 31.5729 18.6855 31.5357C18.456 31.4905 18.2741 31.5868 18.1516 31.7836C18.0121 32.0076 18.1177 32.1929 18.2761 32.344C18.718 32.7655 19.2792 32.9829 19.8323 33.2031C20.782 33.5811 21.7789 33.764 22.8362 33.8749Z" fill="#2563EB"/>
<path d="M35.7393 9.40018C38.6605 6.87153 41.6821 4.53945 45.0587 2.7061C47.2323 1.52596 49.4761 0.515719 51.9297 0.0592595C52.3768 -0.0239228 52.8274 -0.0411164 53.2597 0.151589C53.7378 0.364676 53.7724 0.541804 53.3682 0.859735C53.0519 1.10853 52.7218 1.34299 52.3812 1.55723C47.8933 4.37951 44.0067 7.88077 40.5808 11.9169C37.2578 15.832 34.5145 20.1325 32.02 24.6035C31.6899 25.1951 31.3588 25.7854 30.955 26.3316C29.1956 28.7114 26.379 28.9875 24.1957 26.989C23.2648 26.1369 22.4761 25.1562 21.6744 24.1868C20.4391 22.6931 19.1299 21.2705 17.5993 20.0689C16.4043 19.1308 15.1081 18.4007 13.577 18.1791C13.3113 18.1406 13.1593 18.0541 13.1995 17.7496C13.4012 16.2236 15.2043 14.5313 16.697 14.4235C18.0314 14.3271 19.2477 14.6477 20.4001 15.2996C21.3427 15.8327 22.2176 16.4661 23.113 17.0698C23.8249 17.5497 24.5473 17.9615 25.4696 17.9406C26.4524 17.9184 27.2286 17.4729 27.9787 16.9308C28.82 16.3228 29.5308 15.5701 30.2269 14.8089C31.9594 12.9145 33.8246 11.1569 35.7393 9.40018Z" fill="#DBEAFE"/>
<path d="M67.975 16.7852C67.975 17.7612 67.751 18.6572 67.303 19.4732C66.855 20.2732 66.167 20.9212 65.239 21.4172C64.311 21.9132 63.159 22.1612 61.783 22.1612H59.239V28.2092H55.135V11.3612H61.783C63.127 11.3612 64.263 11.5932 65.191 12.0572C66.119 12.5212 66.815 13.1612 67.279 13.9772C67.743 14.7932 67.975 15.7292 67.975 16.7852ZM61.471 18.8972C62.255 18.8972 62.839 18.7132 63.223 18.3452C63.607 17.9772 63.799 17.4572 63.799 16.7852C63.799 16.1132 63.607 15.5932 63.223 15.2252C62.839 14.8572 62.255 14.6732 61.471 14.6732H59.239V18.8972H61.471ZM69.2956 21.4892C69.2956 20.1132 69.5516 18.9052 70.0636 17.8652C70.5916 16.8252 71.3036 16.0252 72.1996 15.4652C73.0956 14.9052 74.0956 14.6252 75.1996 14.6252C76.1436 14.6252 76.9676 14.8172 77.6716 15.2012C78.3916 15.5852 78.9436 16.0892 79.3276 16.7132V14.8172H83.4316V28.2092H79.3276V26.3132C78.9276 26.9372 78.3676 27.4412 77.6476 27.8252C76.9436 28.2092 76.1196 28.4012 75.1756 28.4012C74.0876 28.4012 73.0956 28.1212 72.1996 27.5612C71.3036 26.9852 70.5916 26.1772 70.0636 25.1372C69.5516 24.0812 69.2956 22.8652 69.2956 21.4892ZM79.3276 21.5132C79.3276 20.4892 79.0396 19.6812 78.4636 19.0892C77.9036 18.4972 77.2156 18.2012 76.3996 18.2012C75.5836 18.2012 74.8876 18.4972 74.3116 19.0892C73.7516 19.6652 73.4716 20.4652 73.4716 21.4892C73.4716 22.5132 73.7516 23.3292 74.3116 23.9372C74.8876 24.5292 75.5836 24.8252 76.3996 24.8252C77.2156 24.8252 77.9036 24.5292 78.4636 23.9372C79.0396 23.3452 79.3276 22.5372 79.3276 21.5132ZM100.081 14.8172L91.6806 34.5692H87.2646L90.3366 27.7532L84.8886 14.8172H89.4726L92.5686 23.1932L95.6406 14.8172H100.081ZM112.533 11.3612V14.6492H105.669V18.2012H110.805V21.3932H105.669V28.2092H101.565V11.3612H112.533ZM118.794 10.4492V28.2092H114.69V10.4492H118.794ZM127.864 28.4012C126.552 28.4012 125.368 28.1212 124.312 27.5612C123.272 27.0012 122.448 26.2012 121.84 25.1612C121.248 24.1212 120.952 22.9052 120.952 21.5132C120.952 20.1372 121.256 18.9292 121.864 17.8892C122.472 16.8332 123.304 16.0252 124.36 15.4652C125.416 14.9052 126.6 14.6252 127.912 14.6252C129.224 14.6252 130.408 14.9052 131.464 15.4652C132.52 16.0252 133.352 16.8332 133.96 17.8892C134.568 18.9292 134.872 20.1372 134.872 21.5132C134.872 22.8892 134.56 24.1052 133.936 25.1612C133.328 26.2012 132.488 27.0012 131.416 27.5612C130.36 28.1212 129.176 28.4012 127.864 28.4012ZM127.864 24.8492C128.648 24.8492 129.312 24.5612 129.856 23.9852C130.416 23.4092 130.696 22.5852 130.696 21.5132C130.696 20.4412 130.424 19.6172 129.88 19.0412C129.352 18.4652 128.696 18.1772 127.912 18.1772C127.112 18.1772 126.448 18.4652 125.92 19.0412C125.392 19.6012 125.128 20.4252 125.128 21.5132C125.128 22.5852 125.384 23.4092 125.896 23.9852C126.424 24.5612 127.08 24.8492 127.864 24.8492ZM156.273 14.8172L152.649 28.2092H148.113L146.001 19.5212L143.817 28.2092H139.305L135.657 14.8172H139.761L141.657 24.3932L143.913 14.8172H148.257L150.537 24.3452L152.409 14.8172H156.273ZM159.758 28.4012C159.038 28.4012 158.446 28.1932 157.982 27.7772C157.534 27.3452 157.31 26.8172 157.31 26.1932C157.31 25.5532 157.534 25.0172 157.982 24.5852C158.446 24.1532 159.038 23.9372 159.758 23.9372C160.462 23.9372 161.038 24.1532 161.486 24.5852C161.95 25.0172 162.182 25.5532 162.182 26.1932C162.182 26.8172 161.95 27.3452 161.486 27.7772C161.038 28.1932 160.462 28.4012 159.758 28.4012Z" fill="black"/>
</g>
<defs>
<clipPath id="clip0_190_566">
<rect width="163.647" height="38.2093" fill="white"/>
</clipPath>
</defs>
</svg>
