<svg width="486" height="198" viewBox="0 0 486 198" fill="none" xmlns="http://www.w3.org/2000/svg">
<g clip-path="url(#clip0_134_623)">
<rect width="486" height="198" rx="16" fill="#052E16"/>
<mask id="mask0_134_623" style="mask-type:alpha" maskUnits="userSpaceOnUse" x="279" y="-52" width="351" height="351">
<rect x="279.487" y="298.487" width="350" height="350" transform="rotate(-90 279.487 298.487)" fill="#D9D9D9"/>
</mask>
<g mask="url(#mask0_134_623)">
<path d="M327.248 -1.5646H420.217V32.7062H386.311L442.821 89.5812C450.113 84.9632 457.83 81.4996 465.972 79.1906C474.115 76.8816 482.439 75.727 490.946 75.727C515.009 75.727 535.425 84.1125 552.196 100.883C568.967 117.654 577.353 138.071 577.353 162.133C577.353 186.196 568.967 206.612 552.196 223.383C535.425 240.154 515.009 248.54 490.946 248.54C466.884 248.54 446.467 240.154 429.696 223.383C412.925 206.612 404.54 186.196 404.54 162.133C404.54 153.383 405.755 145.059 408.186 137.159C410.616 129.26 414.141 121.665 418.759 114.373L361.884 57.4979V91.0396H327.248V-1.5646ZM438.811 162.06C438.811 176.692 443.83 189.052 453.868 199.139C463.906 209.225 476.241 214.269 490.873 214.269C505.505 214.269 517.865 209.25 527.952 199.211C538.038 189.173 543.082 176.838 543.082 162.206C543.082 147.574 538.063 135.215 528.024 125.128C517.986 115.041 505.651 109.998 491.019 109.998C476.387 109.998 464.028 115.017 453.941 125.055C443.854 135.093 438.811 147.428 438.811 162.06Z" fill="#FDE047"/>
</g>
</g>
<defs>
<clipPath id="clip0_134_623">
<rect width="486" height="198" rx="16" fill="white"/>
</clipPath>
</defs>
</svg>
