<svg width="486" height="198" viewBox="0 0 486 198" fill="none" xmlns="http://www.w3.org/2000/svg">
<g clip-path="url(#clip0_134_623)">
<rect width="486" height="198" rx="16" fill="#052E16"/>
<mask id="mask0_134_623" style="mask-type:alpha" maskUnits="userSpaceOnUse" x="189" y="-3" width="350" height="350">
<rect x="189" y="-3" width="350" height="350" fill="#D9D9D9"/>
</mask>
<g mask="url(#mask0_134_623)">
<path d="M489.052 44.761V137.73H454.781V103.823L397.906 160.334C402.524 167.626 405.988 175.343 408.297 183.485C410.606 191.627 411.76 199.952 411.76 208.459C411.76 232.521 403.375 252.938 386.604 269.709C369.833 286.48 349.416 294.865 325.354 294.865C301.291 294.865 280.875 286.48 264.104 269.709C247.333 252.938 238.948 232.521 238.948 208.459C238.948 184.396 247.333 163.98 264.104 147.209C280.875 130.438 301.291 122.053 325.354 122.053C334.104 122.053 342.429 123.268 350.328 125.698C358.227 128.129 365.823 131.653 373.114 136.271L429.989 79.3964H396.448V44.761L489.052 44.761ZM325.427 156.323C310.795 156.323 298.435 161.343 288.349 171.381C278.262 181.419 273.218 193.754 273.218 208.386C273.218 223.018 278.238 235.377 288.276 245.464C298.314 255.551 310.649 260.594 325.281 260.594C339.913 260.594 352.272 255.575 362.359 245.537C372.446 235.499 377.489 223.164 377.489 208.532C377.489 193.9 372.47 181.54 362.432 171.454C352.394 161.367 340.059 156.323 325.427 156.323Z" fill="#FDE047"/>
</g>
</g>
<defs>
<clipPath id="clip0_134_623">
<rect width="486" height="198" rx="16" fill="white"/>
</clipPath>
</defs>
</svg>
