<svg width="486" height="198" viewBox="0 0 486 198" fill="none" xmlns="http://www.w3.org/2000/svg">
<g clip-path="url(#clip0_134_637)">
<rect width="486" height="198" rx="16" fill="#052E16"/>
<mask id="mask0_134_637" style="mask-type:alpha" maskUnits="userSpaceOnUse" x="227" y="-66" width="350" height="350">
<rect x="227" y="-66" width="350" height="350" fill="#D9D9D9"/>
</mask>
<g mask="url(#mask0_134_637)">
<path d="M232.469 239.521V195.407C232.469 185.125 235.106 175.877 240.38 167.662C245.652 159.446 252.98 153.139 262.365 148.74C280.594 140.962 297.179 135.25 312.119 131.604C327.062 127.959 342.442 126.136 358.257 126.136C374.537 126.136 390.03 127.898 404.734 131.422C419.439 134.946 435.906 140.719 454.135 148.74C463.454 152.83 470.827 158.992 476.255 167.224C481.682 175.457 484.396 184.845 484.396 195.388V239.521H232.469ZM510.281 239.521V196.136C510.281 180.337 506.453 167.03 498.797 156.214C491.141 145.398 480.75 135.615 467.625 126.865C482.451 129.052 496.488 131.908 509.734 135.433C522.981 138.957 533.979 142.907 542.729 147.282C551.479 151.9 558.467 158.56 563.693 167.264C568.918 175.968 571.531 185.963 571.531 197.248V239.521H510.281ZM358.341 103.896C340.78 103.896 326.531 98.4273 315.594 87.4898C304.656 76.5523 299.188 62.2728 299.188 44.6513C299.188 27.0298 304.661 12.7502 315.608 1.81275C326.558 -9.12476 340.777 -14.5935 358.265 -14.5935C375.755 -14.5935 390.03 -9.1211 401.089 1.82369C412.148 12.7685 417.677 26.9836 417.677 44.469C417.677 62.2121 412.178 76.5523 401.18 87.4898C390.181 98.4273 375.902 103.896 358.341 103.896ZM502.99 44.4654C502.99 61.9678 497.466 76.2485 486.419 87.3075C475.375 98.3666 461.059 103.896 443.471 103.896C440.54 103.896 437.575 103.653 434.576 103.167C431.574 102.681 428.372 101.83 424.969 100.615C431.288 94.0523 435.967 86.0497 439.005 76.607C442.043 67.1643 443.563 56.5306 443.563 44.706C443.563 32.8813 442.025 22.4141 438.951 13.3044C435.873 4.19227 431.213 -4.0291 424.969 -11.3597C427.885 -12.3003 430.953 -13.0744 434.171 -13.682C437.389 -14.2897 440.489 -14.5935 443.471 -14.5935C460.969 -14.5935 475.263 -9.06155 486.354 2.00234C497.444 13.0662 502.99 27.2206 502.99 44.4654ZM266.74 205.25H449.76V196.865C449.76 193.134 448.606 189.51 446.297 185.993C443.988 182.476 441.132 180.024 437.729 178.636C421.201 171.587 407.347 166.847 396.167 164.417C384.986 161.986 372.347 160.771 358.25 160.771C344.639 160.771 332 161.986 320.333 164.417C308.667 166.847 294.691 171.587 278.406 178.636C275.247 179.987 272.512 182.427 270.203 185.956C267.894 189.483 266.74 193.119 266.74 196.865V205.25ZM358.192 73.6357C366.652 73.6357 373.639 70.9159 379.152 65.4763C384.662 60.0367 387.417 53.1096 387.417 44.695C387.417 36.2805 384.697 29.3388 379.257 23.87C373.818 18.4013 366.891 15.6669 358.476 15.6669C350.061 15.6669 343.12 18.3673 337.651 23.7679C332.182 29.1686 329.448 36.0496 329.448 44.4107C329.448 52.8714 332.148 59.8581 337.549 65.3706C342.95 70.8806 349.831 73.6357 358.192 73.6357Z" fill="#FDE047"/>
</g>
</g>
<defs>
<clipPath id="clip0_134_637">
<rect width="486" height="198" rx="16" fill="white"/>
</clipPath>
</defs>
</svg>
